<?xml version="1.0" encoding="UTF-8"?>
<!-- Generator: visioncortex VTracer 0.6.4 -->
<svg version="1.1" xmlns="http://www.w3.org/2000/svg" width="512" height="512">
<path d="M0 0 C0.680625 0.309375 1.36125 0.61875 2.0625 0.9375 C2.84382335 9.37579221 0.08168875 15.16219218 -5.16796875 21.7265625 C-8.25017751 25.21604517 -11.05261943 28.34757962 -14.9375 30.9375 C-10.19888406 32.52138999 -5.45769966 34.09692717 -0.7109375 35.65625 C1.08854955 36.24997611 2.88802865 36.84372631 4.6875 37.4375 C5.58984375 37.73269531 6.4921875 38.02789062 7.421875 38.33203125 C11.27429044 39.60681012 14.99906206 40.90947875 18.71484375 42.55078125 C21.77445406 43.81818109 24.66646348 44.58317401 27.91015625 45.21582031 C43.95833345 48.35796342 58.52458127 55.42080928 67.875 69.25 C75.42626729 81.86464605 77.6467716 94.64723283 74.91015625 109.01953125 C73.61698203 113.47114941 71.47062972 117.3773628 69.20703125 121.40625 C67.6989439 123.97849843 67.6989439 123.97849843 69.0625 126.9375 C70.68939134 128.54820961 70.68939134 128.54820961 72.6875 130.125 C80.19856385 136.54574813 86.79044377 143.32916365 88.4765625 153.4140625 C88.93560025 161.21770425 86.0386338 166.3240652 81.18359375 172.21875 C75.2977177 178.54904763 68.5231573 182.70556611 61.0625 186.9375 C61.24425781 187.73969971 61.42601562 188.54189941 61.61328125 189.3684082 C62.43299796 192.99486645 63.24780609 196.62241022 64.0625 200.25 C64.34867187 201.51263672 64.63484375 202.77527344 64.9296875 204.07617188 C65.20039063 205.28466797 65.47109375 206.49316406 65.75 207.73828125 C66.00136719 208.85372314 66.25273437 209.96916504 66.51171875 211.1184082 C67.0625 213.9375 67.0625 213.9375 67.0625 216.9375 C68.32191406 217.02 69.58132813 217.1025 70.87890625 217.1875 C75.64622668 217.70963953 79.71135784 219.16534545 84.16967773 220.87158203 C92.65616867 224.37281719 92.65616867 224.37281719 101.46875 223.9453125 C103.93564514 222.11036889 105.96093008 220.17423313 108.0625 217.9375 C112.96148412 214.81518608 118.3781045 213.97181119 124.0625 214.9375 C126.625 216.5 126.625 216.5 128.0625 218.9375 C128.72849565 223.43297066 128.3621697 225.4224427 126.0625 229.375 C125.4025 230.220625 124.7425 231.06625 124.0625 231.9375 C124.990625 232.515 125.91875 233.0925 126.875 233.6875 C131.67119565 237.07304987 131.67119565 237.07304987 133.0625 239.9375 C133.0625 244.09106049 132.70176076 246.18201001 130 249.375 C126.04965265 251.47624859 123.49472695 251.23798996 119.0625 250.9375 C119.145 252.175 119.2275 253.4125 119.3125 254.6875 C119.2911346 257.70002076 119.1564071 258.78098817 117.5625 261.4375 C114.05512137 263.54192718 110.98790683 263.65537596 107.0625 262.9375 C102.45519187 260.82581711 100.29170904 257.8979078 97.4375 253.875 C92.85186348 247.90402778 88.2604949 247.01955152 81.0625 245.9375 C79.30968935 245.55430444 77.55926553 245.15987097 75.8125 244.75 C74.575 244.481875 73.3375 244.21375 72.0625 243.9375 C72.49369141 245.46117187 72.49369141 245.46117187 72.93359375 247.015625 C74.38586434 252.83494364 75.09912051 258.75780795 75.86743164 264.69921875 C76.12273498 266.67001536 76.38652566 268.63970641 76.65039062 270.609375 C80.91256728 303.00844966 82.71465196 337.9193717 63.0625 365.9375 C60.19586908 369.40859623 57.2058261 372.71576894 54.0625 375.9375 C56.97436748 377.87874499 59.55607805 378.94774545 62.8125 380.1875 C69.06429347 382.76087746 73.96715412 385.53256294 77.5625 391.375 C78.47297326 396.04117547 77.90388929 399.59750965 75.375 403.625 C71.3921911 407.6078089 68.2377542 410.16522018 62.5 410.5 C50.13362484 409.92952734 34.28161294 401.75024196 24.0625 394.9375 C19.85924995 395.63804167 15.86928535 396.71068134 11.76953125 397.86328125 C4.81950934 399.79260137 -2.06936868 401.43626681 -9.1875 402.625 C-9.89511475 402.74415771 -10.60272949 402.86331543 -11.33178711 402.98608398 C-41.19439354 407.74609203 -72.15804568 405.35871119 -101.55859375 399.05859375 C-102.49888428 398.86894043 -103.4391748 398.67928711 -104.40795898 398.48388672 C-106.9375 397.9375 -106.9375 397.9375 -110.5625 396.84765625 C-116.1007122 396.99508551 -119.35804348 400.50818086 -123.5 403.9375 C-143.48966056 419.6915493 -143.48966056 419.6915493 -154.9375 418.9375 C-157.69892665 417.92013229 -158.61835371 417.57579259 -159.9375 414.9375 C-160.88625 414.48375 -161.835 414.03 -162.8125 413.5625 C-166.02992903 411.88943691 -167.36782157 411.16406121 -168.9375 407.9375 C-169.92840841 401.55164583 -168.3400225 397.63531098 -164.83984375 392.265625 C-159.9644874 386.2990698 -152.77798784 383.17118516 -145.9375 379.9375 C-146.88109375 379.08091797 -146.88109375 379.08091797 -147.84375 378.20703125 C-164.09990711 362.80774989 -170.58403218 343.79440423 -171.2734375 321.70703125 C-171.30287446 319.05335582 -171.31813185 316.40346305 -171.3125 313.75 C-171.3139502 313.04514465 -171.31540039 312.34028931 -171.31689453 311.61407471 C-171.31252837 291.96363169 -169.0978576 272.44679313 -166.9375 252.9375 C-169.04371506 253.62266566 -171.13952209 254.33987704 -173.23046875 255.0703125 C-174.39860107 255.46621582 -175.5667334 255.86211914 -176.77026367 256.27001953 C-181.50763356 258.76414088 -182.58893539 262.19767049 -184.546875 266.98046875 C-186.6287957 271.40747428 -189.74766722 274.44297528 -193.9375 276.9375 C-197.40335256 277.96305576 -198.38625442 278.21312279 -201.6875 276.5625 C-203.9375 274.9375 -203.9375 274.9375 -204.9375 273.9375 C-204.97830783 271.93791636 -204.98004356 269.93704746 -204.9375 267.9375 C-205.453125 268.2675 -205.96875 268.5975 -206.5 268.9375 C-209.89871795 270.33184583 -212.29344448 270.38501559 -215.9375 269.9375 C-218.9375 267.9375 -218.9375 267.9375 -220.9375 264.9375 C-221.32486639 262.02638286 -220.97144247 259.67993564 -219.9375 256.9375 C-217.375 253.9375 -217.375 253.9375 -214.9375 251.9375 C-216.3915625 250.82375 -216.3915625 250.82375 -217.875 249.6875 C-219.69378745 248.14885753 -220.84820111 247.10033915 -222 245 C-221.89921338 241.67404168 -220.7313415 239.71506103 -218.9375 236.9375 C-214.65629323 232.96955227 -211.14169446 232.39112682 -205.52734375 232.59375 C-202.89694106 232.94288339 -200.67637464 233.59342846 -198.1875 234.5 C-194.26167195 235.92508243 -192.01548944 236.35231266 -187.9375 234.9375 C-185.39862148 233.53703571 -182.93896375 232.0473219 -180.484375 230.50390625 C-177.07073115 228.40441057 -173.54657055 226.67520064 -169.9375 224.9375 C-169.77169314 217.15954611 -170.24657256 209.46681489 -170.79309082 201.71038818 C-173.20921364 166.81957318 -171.80969802 132.13236014 -163.9375 97.9375 C-164.55625 98.1025 -165.175 98.2675 -165.8125 98.4375 C-174.18315342 99.77680455 -181.51787586 99.36935603 -188.9375 94.9375 C-194.61878934 90.11053988 -198.18797992 84.3424899 -199.21484375 76.9375 C-199.54309171 70.21498172 -197.4243494 64.5268734 -193.3125 59.25 C-188.22363702 53.69041719 -181.53541938 50.31754483 -174.0546875 49.69921875 C-161.17755317 49.40444098 -152.66454227 53.54680984 -143.4375 62.3125 C-142.9425 62.84875 -142.4475 63.385 -141.9375 63.9375 C-138.27694748 62.37112404 -135.7580327 60.08931862 -132.8125 57.4375 C-113.43313258 40.83528547 -86.7184197 31.39576076 -61.5 29.3125 C-51.28314646 27.93375506 -45.74406845 20.40403891 -39.81347656 12.63793945 C-38.95403851 11.48440745 -38.11013768 10.31909391 -37.28417969 9.14135742 C-34.40185688 5.11451126 -34.40185688 5.11451126 -31.65234375 4.06640625 C-31.08644531 4.02386719 -30.52054688 3.98132812 -29.9375 3.9375 C-27.44979021 7.66906468 -27.81101212 9.17168375 -28.37890625 13.44140625 C-29.29683842 17.54321502 -31.04030843 21.20488588 -32.9375 24.9375 C-22.52368478 18.93110658 -14.11984738 11.4942759 -6 2.6875 C-3.32688784 -0.07078485 -3.32688784 -0.07078485 0 0 Z " fill="#52B2D6" transform="translate(298.9375,29.0625)"/>
<path d="M0 0 C0.680625 0.309375 1.36125 0.61875 2.0625 0.9375 C2.84382335 9.37579221 0.08168875 15.16219218 -5.16796875 21.7265625 C-8.25017751 25.21604517 -11.05261943 28.34757962 -14.9375 30.9375 C-10.19888406 32.52138999 -5.45769966 34.09692717 -0.7109375 35.65625 C1.08854955 36.24997611 2.88802865 36.84372631 4.6875 37.4375 C5.58984375 37.73269531 6.4921875 38.02789062 7.421875 38.33203125 C11.27429044 39.60681012 14.99906206 40.90947875 18.71484375 42.55078125 C21.77445406 43.81818109 24.66646348 44.58317401 27.91015625 45.21582031 C43.95833345 48.35796342 58.52458127 55.42080928 67.875 69.25 C75.42626729 81.86464605 77.6467716 94.64723283 74.91015625 109.01953125 C73.61698203 113.47114941 71.47062972 117.3773628 69.20703125 121.40625 C67.6989439 123.97849843 67.6989439 123.97849843 69.0625 126.9375 C70.68939134 128.54820961 70.68939134 128.54820961 72.6875 130.125 C80.19856385 136.54574813 86.79044377 143.32916365 88.4765625 153.4140625 C88.93560025 161.21770425 86.0386338 166.3240652 81.18359375 172.21875 C75.2977177 178.54904763 68.5231573 182.70556611 61.0625 186.9375 C61.24425781 187.73969971 61.42601562 188.54189941 61.61328125 189.3684082 C62.43299796 192.99486645 63.24780609 196.62241022 64.0625 200.25 C64.34867187 201.51263672 64.63484375 202.77527344 64.9296875 204.07617188 C65.20039063 205.28466797 65.47109375 206.49316406 65.75 207.73828125 C66.00136719 208.85372314 66.25273437 209.96916504 66.51171875 211.1184082 C67.0625 213.9375 67.0625 213.9375 67.0625 216.9375 C68.32191406 217.02 69.58132813 217.1025 70.87890625 217.1875 C75.64622668 217.70963953 79.71135784 219.16534545 84.16967773 220.87158203 C92.65616867 224.37281719 92.65616867 224.37281719 101.46875 223.9453125 C103.93564514 222.11036889 105.96093008 220.17423313 108.0625 217.9375 C112.96148412 214.81518608 118.3781045 213.97181119 124.0625 214.9375 C126.625 216.5 126.625 216.5 128.0625 218.9375 C128.72849565 223.43297066 128.3621697 225.4224427 126.0625 229.375 C125.4025 230.220625 124.7425 231.06625 124.0625 231.9375 C124.990625 232.515 125.91875 233.0925 126.875 233.6875 C131.67119565 237.07304987 131.67119565 237.07304987 133.0625 239.9375 C133.0625 244.09106049 132.70176076 246.18201001 130 249.375 C126.04965265 251.47624859 123.49472695 251.23798996 119.0625 250.9375 C119.145 252.175 119.2275 253.4125 119.3125 254.6875 C119.2911346 257.70002076 119.1564071 258.78098817 117.5625 261.4375 C114.05512137 263.54192718 110.98790683 263.65537596 107.0625 262.9375 C102.45519187 260.82581711 100.29170904 257.8979078 97.4375 253.875 C92.85186348 247.90402778 88.2604949 247.01955152 81.0625 245.9375 C79.30968935 245.55430444 77.55926553 245.15987097 75.8125 244.75 C74.575 244.481875 73.3375 244.21375 72.0625 243.9375 C72.49369141 245.46117187 72.49369141 245.46117187 72.93359375 247.015625 C74.38586434 252.83494364 75.09912051 258.75780795 75.86743164 264.69921875 C76.12273498 266.67001536 76.38652566 268.63970641 76.65039062 270.609375 C80.91256728 303.00844966 82.71465196 337.9193717 63.0625 365.9375 C60.19586908 369.40859623 57.2058261 372.71576894 54.0625 375.9375 C56.97436748 377.87874499 59.55607805 378.94774545 62.8125 380.1875 C69.06429347 382.76087746 73.96715412 385.53256294 77.5625 391.375 C78.47297326 396.04117547 77.90388929 399.59750965 75.375 403.625 C71.3921911 407.6078089 68.2377542 410.16522018 62.5 410.5 C50.13362484 409.92952734 34.28161294 401.75024196 24.0625 394.9375 C19.85924995 395.63804167 15.86928535 396.71068134 11.76953125 397.86328125 C4.81950934 399.79260137 -2.06936868 401.43626681 -9.1875 402.625 C-9.89511475 402.74415771 -10.60272949 402.86331543 -11.33178711 402.98608398 C-41.19439354 407.74609203 -72.15804568 405.35871119 -101.55859375 399.05859375 C-102.49888428 398.86894043 -103.4391748 398.67928711 -104.40795898 398.48388672 C-106.9375 397.9375 -106.9375 397.9375 -110.5625 396.84765625 C-116.1007122 396.99508551 -119.35804348 400.50818086 -123.5 403.9375 C-143.48966056 419.6915493 -143.48966056 419.6915493 -154.9375 418.9375 C-157.69892665 417.92013229 -158.61835371 417.57579259 -159.9375 414.9375 C-160.88625 414.48375 -161.835 414.03 -162.8125 413.5625 C-166.02992903 411.88943691 -167.36782157 411.16406121 -168.9375 407.9375 C-169.92840841 401.55164583 -168.3400225 397.63531098 -164.83984375 392.265625 C-159.9644874 386.2990698 -152.77798784 383.17118516 -145.9375 379.9375 C-146.88109375 379.08091797 -146.88109375 379.08091797 -147.84375 378.20703125 C-164.09990711 362.80774989 -170.58403218 343.79440423 -171.2734375 321.70703125 C-171.30287446 319.05335582 -171.31813185 316.40346305 -171.3125 313.75 C-171.3139502 313.04514465 -171.31540039 312.34028931 -171.31689453 311.61407471 C-171.31252837 291.96363169 -169.0978576 272.44679313 -166.9375 252.9375 C-169.04371506 253.62266566 -171.13952209 254.33987704 -173.23046875 255.0703125 C-174.39860107 255.46621582 -175.5667334 255.86211914 -176.77026367 256.27001953 C-181.50763356 258.76414088 -182.58893539 262.19767049 -184.546875 266.98046875 C-186.6287957 271.40747428 -189.74766722 274.44297528 -193.9375 276.9375 C-197.40335256 277.96305576 -198.38625442 278.21312279 -201.6875 276.5625 C-203.9375 274.9375 -203.9375 274.9375 -204.9375 273.9375 C-204.97830783 271.93791636 -204.98004356 269.93704746 -204.9375 267.9375 C-205.453125 268.2675 -205.96875 268.5975 -206.5 268.9375 C-209.89871795 270.33184583 -212.29344448 270.38501559 -215.9375 269.9375 C-218.9375 267.9375 -218.9375 267.9375 -220.9375 264.9375 C-221.32486639 262.02638286 -220.97144247 259.67993564 -219.9375 256.9375 C-217.375 253.9375 -217.375 253.9375 -214.9375 251.9375 C-216.3915625 250.82375 -216.3915625 250.82375 -217.875 249.6875 C-219.69378745 248.14885753 -220.84820111 247.10033915 -222 245 C-221.89921338 241.67404168 -220.7313415 239.71506103 -218.9375 236.9375 C-214.65629323 232.96955227 -211.14169446 232.39112682 -205.52734375 232.59375 C-202.89694106 232.94288339 -200.67637464 233.59342846 -198.1875 234.5 C-194.26167195 235.92508243 -192.01548944 236.35231266 -187.9375 234.9375 C-185.39862148 233.53703571 -182.93896375 232.0473219 -180.484375 230.50390625 C-177.07073115 228.40441057 -173.54657055 226.67520064 -169.9375 224.9375 C-169.77169314 217.15954611 -170.24657256 209.46681489 -170.79309082 201.71038818 C-173.20921364 166.81957318 -171.80969802 132.13236014 -163.9375 97.9375 C-164.55625 98.1025 -165.175 98.2675 -165.8125 98.4375 C-174.18315342 99.77680455 -181.51787586 99.36935603 -188.9375 94.9375 C-194.61878934 90.11053988 -198.18797992 84.3424899 -199.21484375 76.9375 C-199.54309171 70.21498172 -197.4243494 64.5268734 -193.3125 59.25 C-188.22363702 53.69041719 -181.53541938 50.31754483 -174.0546875 49.69921875 C-161.17755317 49.40444098 -152.66454227 53.54680984 -143.4375 62.3125 C-142.9425 62.84875 -142.4475 63.385 -141.9375 63.9375 C-138.27694748 62.37112404 -135.7580327 60.08931862 -132.8125 57.4375 C-113.43313258 40.83528547 -86.7184197 31.39576076 -61.5 29.3125 C-51.28314646 27.93375506 -45.74406845 20.40403891 -39.81347656 12.63793945 C-38.95403851 11.48440745 -38.11013768 10.31909391 -37.28417969 9.14135742 C-34.40185688 5.11451126 -34.40185688 5.11451126 -31.65234375 4.06640625 C-31.08644531 4.02386719 -30.52054688 3.98132812 -29.9375 3.9375 C-27.44979021 7.66906468 -27.81101212 9.17168375 -28.37890625 13.44140625 C-29.29683842 17.54321502 -31.04030843 21.20488588 -32.9375 24.9375 C-22.52368478 18.93110658 -14.11984738 11.4942759 -6 2.6875 C-3.32688784 -0.07078485 -3.32688784 -0.07078485 0 0 Z M-3.9375 6.9375 C-5.08821173 8.18787967 -6.18206008 9.49072425 -7.25 10.8125 C-15.98544915 20.82285254 -26.75468668 27.80610583 -38.9375 32.9375 C-39.5975 32.9375 -40.2575 32.9375 -40.9375 32.9375 C-39.60069304 28.6026114 -37.90431756 24.70944873 -35.8125 20.6875 C-33.68216171 16.99117751 -33.68216171 16.99117751 -32.9375 12.9375 C-33.5975 12.9375 -34.2575 12.9375 -34.9375 12.9375 C-36.44061841 14.65396078 -36.44061841 14.65396078 -38 16.875 C-42.69086645 23.08696331 -48.23520569 29.81702334 -54.9375 33.9375 C-56.99609375 34.0546875 -56.99609375 34.0546875 -59.375 33.8125 C-88.6381639 33.11205193 -119.02018262 51.09085429 -139.87890625 69.89453125 C-141.97533795 71.86435649 -141.97533795 71.86435649 -143.52734375 74.13671875 C-144.9375 75.9375 -144.9375 75.9375 -147.9375 76.9375 C-146.6175 74.2975 -145.2975 71.6575 -143.9375 68.9375 C-149.19152428 62.1292306 -155.19618875 56.52394487 -163.9375 54.9375 C-175.66854339 54.0439159 -175.66854339 54.0439159 -185.9375 58.9375 C-190.81271581 63.75558437 -194.07285763 67.19431529 -194.1875 74.1875 C-194.11403466 80.44021676 -192.72508212 83.91470971 -188.5625 88.625 C-182.54000116 93.93053469 -178.43010351 94.33369017 -170.54296875 94.17578125 C-165.88293517 93.86780503 -161.45481195 93.10325792 -156.9375 91.9375 C-157.370625 92.96875 -157.80375 94 -158.25 95.0625 C-166.90142855 118.57976353 -167.15028695 146.26817938 -167.125 171.0625 C-167.12539276 171.88345154 -167.12578552 172.70440308 -167.12619019 173.55023193 C-167.66961391 198.5050931 -167.66961391 198.5050931 -163.9375 222.9375 C-163.34582031 222.80472656 -162.75414062 222.67195312 -162.14453125 222.53515625 C-158.08303475 221.62744822 -154.02375829 220.7283887 -149.9375 219.9375 C-149.6075 220.5975 -149.2775 221.2575 -148.9375 221.9375 C-150.24497192 222.1072937 -150.24497192 222.1072937 -151.57885742 222.28051758 C-154.97062362 222.9439793 -157.56718568 223.95984121 -160.67578125 225.44921875 C-162.27776367 226.21588867 -162.27776367 226.21588867 -163.91210938 226.99804688 C-165.01361328 227.53494141 -166.11511719 228.07183594 -167.25 228.625 C-168.33990234 229.14255859 -169.42980469 229.66011719 -170.55273438 230.19335938 C-176.40978408 233.02150785 -181.84791904 236.0049143 -187.10351562 239.84692383 C-188.9375 240.9375 -188.9375 240.9375 -192.125 240.9375 C-193.9884293 240.27494736 -195.84546848 239.59411815 -197.6953125 238.89453125 C-201.14864185 237.87517499 -204.03144244 237.63752111 -207.625 237.625 C-209.30142578 237.59986328 -209.30142578 237.59986328 -211.01171875 237.57421875 C-213.924163 237.70123704 -213.924163 237.70123704 -215.84765625 239.29296875 C-217.21144894 240.97650551 -217.21144894 240.97650551 -216.6875 243.5625 C-216.16004355 245.8687407 -216.16004355 245.8687407 -214.9375 246.9375 C-212.75457226 247.17231693 -210.56546826 247.35113323 -208.375 247.5 C-207.17746094 247.58378906 -205.97992188 247.66757812 -204.74609375 247.75390625 C-203.81925781 247.81449219 -202.89242187 247.87507812 -201.9375 247.9375 C-201.9375 248.5975 -201.9375 249.2575 -201.9375 249.9375 C-202.61296875 250.25203125 -203.2884375 250.5665625 -203.984375 250.890625 C-210.74673146 253.89419588 -210.74673146 253.89419588 -215.9375 258.9375 C-216.43809916 261.52267587 -216.43809916 261.52267587 -215.9375 263.9375 C-215.2775 264.5975 -214.6175 265.2575 -213.9375 265.9375 C-209.33807377 265.68424563 -205.89190047 263.30647756 -202.125 260.875 C-201.52751953 260.49794922 -200.93003906 260.12089844 -200.31445312 259.73242188 C-198.85113423 258.80760434 -197.39370477 257.87347935 -195.9375 256.9375 C-196.2984375 257.60136719 -196.659375 258.26523437 -197.03125 258.94921875 C-197.4953125 259.83222656 -197.959375 260.71523438 -198.4375 261.625 C-199.13359375 262.93017578 -199.13359375 262.93017578 -199.84375 264.26171875 C-200.98568792 267.05538829 -201.15254208 268.95379113 -200.9375 271.9375 C-198.74235127 272.8968157 -198.74235127 272.8968157 -195.9375 272.9375 C-189.40831721 269.18669287 -186.75594623 262.70376986 -183.9375 255.9375 C-183.9375 255.2775 -183.9375 254.6175 -183.9375 253.9375 C-183.20789063 253.80988281 -182.47828125 253.68226563 -181.7265625 253.55078125 C-179.07691021 252.96815463 -176.81812676 252.14928716 -174.3125 251.125 C-164.0005546 247.27558169 -152.82695282 245.37875111 -141.9375 243.9375 C-141.9375 244.9275 -141.9375 245.9175 -141.9375 246.9375 C-142.96230469 247.07027344 -143.98710937 247.20304688 -145.04296875 247.33984375 C-146.4036574 247.51814088 -147.76433385 247.69653123 -149.125 247.875 C-149.79853516 247.96201172 -150.47207031 248.04902344 -151.16601562 248.13867188 C-154.79015617 248.6159977 -158.35833284 249.2000565 -161.9375 249.9375 C-171.35372685 310.82949071 -171.35372685 310.82949071 -151.9375 366.9375 C-151.52242188 367.52917969 -151.10734375 368.12085938 -150.6796875 368.73046875 C-137.52902272 385.93657806 -113.60269303 392.19784956 -93.4375 396.125 C-92.24846069 396.35727295 -92.24846069 396.35727295 -91.03540039 396.59423828 C-75.9355183 399.3693191 -61.07687067 400.31469951 -45.75 400.25 C-44.85085876 400.24817719 -43.95171753 400.24635437 -43.02532959 400.24447632 C-29.48776839 400.19832998 -16.21749558 399.81200606 -2.9375 396.9375 C-2.11749512 396.76057617 -1.29749023 396.58365234 -0.45263672 396.40136719 C25.10881207 390.66379058 48.41276916 380.31285189 62.99072266 357.70117188 C89.56816297 313.96645005 69.6236462 241.14400539 58.58349609 194.92822266 C57.87407543 192.21753097 57.00433237 189.57548298 56.0625 186.9375 C54.0825 186.9375 52.1025 186.9375 50.0625 186.9375 C52.25136529 184.74863471 53.6183375 184.26895586 56.5 183.25 C66.83696798 179.19277736 77.29883024 172.82505875 82.24609375 162.45703125 C83.92311027 157.28154963 84.08438459 152.38129517 81.96484375 147.3125 C77.6481693 139.7611975 71.80250353 133.06550189 64.0625 128.9375 C60.83264163 129.31822987 59.30913982 130.41745768 57.0625 132.6875 C49.08713073 139.76351912 38.24981196 141.91646876 28.0625 143.9375 C31.71840208 147.76520199 35.56792076 150.97256531 39.8125 154.125 C45.92770888 158.66791775 45.92770888 158.66791775 47.0625 160.9375 C47.4375 163.8125 47.4375 163.8125 47.0625 166.9375 C39.8719928 174.5774139 29.03319597 176.75296484 19.0625 177.9375 C18.95292969 179.09507812 18.84335937 180.25265625 18.73046875 181.4453125 C18.57092519 182.98443863 18.41073461 184.52349779 18.25 186.0625 C18.17974609 186.82304687 18.10949219 187.58359375 18.03710938 188.3671875 C17.43931406 193.91472806 16.29922095 198.53509602 12.375 202.75 C8.29218771 204.84657928 4.30253977 205.49251877 -0.12890625 204.39453125 C-3.40606669 203.20557986 -6.01928427 201.88297715 -8.9375 199.9375 C-9.865625 201.113125 -9.865625 201.113125 -10.8125 202.3125 C-14.46933664 206.05413286 -18.92885244 206.20289836 -23.9375 206.9375 C-24.9275 212.2175 -25.9175 217.4975 -26.9375 222.9375 C-23.57649808 221.59309923 -21.31629362 220.6307213 -18.4375 218.75 C-14.9375 216.9375 -14.9375 216.9375 -12 217.1875 C-11.319375 217.435 -10.63875 217.6825 -9.9375 217.9375 C-9.34721316 223.72231103 -9.55795928 227.81976556 -13.3046875 232.43359375 C-16.92822105 235.77105887 -21.32749343 237.40083114 -25.9375 238.9375 C-25.9375 237.9475 -25.9375 236.9575 -25.9375 235.9375 C-24.638125 235.5971875 -24.638125 235.5971875 -23.3125 235.25 C-18.71660631 233.46270801 -15.40874733 231.07749611 -12.5625 226.9375 C-11.80889976 224.52597922 -11.79797654 222.44892219 -11.9375 219.9375 C-15.61120143 220.52372895 -18.42025026 221.55074769 -21.6875 223.3125 C-38.60685929 231.98460883 -58.39863664 233.74413215 -76.58984375 228.19921875 C-85.88619423 224.69546005 -93.59670751 219.56004481 -97.8125 210.3125 C-100.47441991 202.08764568 -99.89314816 193.01103911 -96.25 185.21875 C-91.54691119 177.04433373 -85.83366102 172.99473528 -76.9375 169.9375 C-67.75089283 167.71562292 -58.88813917 168.92946844 -49.75 170.75 C-48.91911865 170.9152417 -48.0882373 171.0804834 -47.23217773 171.25073242 C-42.32299903 172.28493533 -37.64339639 173.6488674 -32.90185547 175.28100586 C-25.01555475 177.91663383 -15.04734376 178.41800287 -7.1875 175.5625 C-3.94408808 174.15490659 -3.94408808 174.15490659 -1.9375 171.9375 C1.80890441 172.23721235 5.19659503 172.97549359 8.8125 174 C18.62168257 176.46641635 27.83553111 174.85125287 37.0625 170.9375 C39.95502651 169.15681551 42.54718458 167.21724207 45.0625 164.9375 C43.75477456 160.95245739 42.35632238 158.96122097 39.03515625 156.421875 C38.24302734 155.81085938 37.45089844 155.19984375 36.63476562 154.5703125 C35.80654297 153.94898438 34.97832031 153.32765625 34.125 152.6875 C33.30064453 152.05070313 32.47628906 151.41390625 31.62695312 150.7578125 C27.16382817 147.27026721 27.16382817 147.27026721 22.0625 144.9375 C21.794375 145.45699219 21.52625 145.97648438 21.25 146.51171875 C17.47235692 153.23443226 13.1544103 156.49209885 5.921875 159.046875 C1.26788029 160.12087378 -3.05353715 160.30532208 -7.8125 160.3125 C-8.65941406 160.33699219 -9.50632812 160.36148438 -10.37890625 160.38671875 C-17.09511184 160.41757421 -23.45816535 159.10645922 -28.56591797 154.4543457 C-32.51443791 149.90771426 -33.29965893 146.02939569 -33.21484375 140.21484375 C-32.60381979 135.19756254 -29.36248274 132.18013939 -25.6875 129.0625 C-24.78 128.36125 -23.8725 127.66 -22.9375 126.9375 C-23.91248145 125.4347763 -24.89259389 123.93538037 -25.875 122.4375 C-26.42027344 121.6021875 -26.96554687 120.766875 -27.52734375 119.90625 C-27.99269531 119.2565625 -28.45804688 118.606875 -28.9375 117.9375 C-29.2675 117.9375 -29.5975 117.9375 -29.9375 117.9375 C-30.10765625 118.69933594 -30.2778125 119.46117187 -30.453125 120.24609375 C-32.59730177 129.38165539 -35.31666649 137.3328429 -40.9375 144.9375 C-41.34484375 145.49050781 -41.7521875 146.04351562 -42.171875 146.61328125 C-50.62430977 157.32128148 -63.70827539 163.46455984 -76.9375 165.9375 C-93.63713466 167.61626749 -109.17603698 163.75478918 -122.8359375 153.83203125 C-132.56819751 145.57568455 -137.56593605 135.22612547 -140.6875 123 C-141.96586762 107.3399966 -139.52585675 92.29099812 -129.453125 79.73046875 C-120.12566315 68.75392507 -108.34654667 61.83580602 -93.9375 59.9375 C-76.35950271 58.89047152 -60.23950337 62.57137443 -46.5 74.1875 C-41.65992672 78.81957013 -38.2170037 84.12778318 -34.9375 89.9375 C-32.66730052 87.66730052 -32.45038557 86.55643258 -31.6875 83.5 C-27.70692616 69.77593198 -19.94117478 60.70055714 -7.66552734 53.6730957 C-0.82005604 50.04391803 6.51045284 48.42829373 14.0625 46.9375 C12.51262702 43.83775403 10.17378544 43.71680179 6.9375 42.625 C-3.45506748 39.17126482 -14.21964806 37.10956565 -24.9375 34.9375 C-24.9375 34.2775 -24.9375 33.6175 -24.9375 32.9375 C-23.31333273 31.69250413 -21.63561602 30.51707531 -19.9375 29.375 C-11.39813878 23.28644644 -5.50860997 16.87552314 -1.9375 6.9375 C-2.5975 6.9375 -3.2575 6.9375 -3.9375 6.9375 Z " fill="#0C1010" transform="translate(298.9375,29.0625)"/>
<path d="M0 0 C10.73103562 9.08886198 17.19252948 20.60808664 18.64453125 34.6640625 C19.16832422 50.96923083 13.95104162 63.15020393 3.39453125 75.1171875 C-7.7487177 85.87701283 -22.12806779 89.40387121 -37.07739258 89.36401367 C-51.79347365 89.07869776 -63.81889127 83.43419239 -74.44140625 73.4375 C-83.7774165 63.4971143 -87.38576845 50.71046972 -87.20483398 37.30786133 C-86.60253011 23.07582235 -80.38520706 10.570309 -70.01953125 0.84375 C-49.68073106 -15.60112605 -20.9442646 -15.34915391 0 0 Z " fill="#F9F9F9" transform="translate(247.734375,103.00390625)"/>
<path d="M0 0 C9.54152112 7.10437131 16.81318584 16.21601133 19.30859375 28.1171875 C21.14841075 42.83572348 17.98534167 54.85130207 8.9140625 66.5234375 C1.36720503 74.92679057 -10.19561208 80.35130517 -21.41015625 81.3671875 C-23.77312945 81.48214295 -26.04305348 81.47010501 -28.41015625 81.3671875 C-28.42433594 80.77550781 -28.43851562 80.18382812 -28.453125 79.57421875 C-28.7100925 75.31689233 -28.95786341 72.96162952 -31.59765625 69.4921875 C-38.64328744 64.16882171 -44.57948429 63.17272679 -53.09765625 63.1796875 C-53.90187012 63.17904297 -54.70608398 63.17839844 -55.53466797 63.17773438 C-61.08886847 63.22723505 -66.06041132 63.78207789 -71.41015625 65.3671875 C-79.53767657 55.66834659 -83.41559246 45.0584483 -82.41015625 32.3671875 C-80.61099409 19.34389441 -74.74640361 8.62170378 -64.41015625 0.3671875 C-44.43408763 -12.65424982 -20.02075544 -13.56349396 0 0 Z " fill="#F8F8F8" transform="translate(350.41015625,88.6328125)"/>
<path d="M0 0 C1.10794922 -0.03673828 1.10794922 -0.03673828 2.23828125 -0.07421875 C7.88507836 -0.10409598 11.09410226 1.1740703 15.75 4.375 C20.09603128 8.72103128 21.73854871 12.72377972 23.75 18.375 C24.41 18.705 25.07 19.035 25.75 19.375 C25.440625 18.116875 25.13125 16.85875 24.8125 15.5625 C24.63847656 14.85480469 24.46445313 14.14710938 24.28515625 13.41796875 C23.83989295 11.71816798 23.30566015 10.04198046 22.75 8.375 C28.60006431 8.7331672 32.62553996 10.07419725 36.75 14.375 C40.41961829 19.83783227 42.59233388 24.77671795 41.75 31.375 C39.39619749 33.72880251 33.59086808 32.61604956 30.4375 32.625 C17.76498033 32.61991757 5.42724471 31.49336483 -4.2890625 22.484375 C-8.98012228 17.42652454 -11.23746205 13.07581151 -11.5625 6.125 C-11.459375 4.8875 -11.35625 3.65 -11.25 2.375 C-7.46768056 -0.14654629 -4.38424194 0.00749443 0 0 Z " fill="#F06F51" transform="translate(214.25,224.625)"/>
<path d="M0 0 C0.66 0.66 1.32 1.32 2 2 C1.97265625 4.41796875 1.97265625 4.41796875 1 7 C-1.50390625 8.80078125 -1.50390625 8.80078125 -4.5625 10.3125 C-5.57441406 10.82425781 -6.58632813 11.33601563 -7.62890625 11.86328125 C-8.41136719 12.23839844 -9.19382812 12.61351562 -10 13 C-10 13.66 -10 14.32 -10 15 C-9.18015625 15.18175781 -8.3603125 15.36351562 -7.515625 15.55078125 C-6.43796875 15.80214844 -5.3603125 16.05351562 -4.25 16.3125 C-3.18265625 16.55613281 -2.1153125 16.79976563 -1.015625 17.05078125 C1.95461703 17.98571495 3.75588564 18.86325953 6 21 C6.375 23.5625 6.375 23.5625 6 26 C4 28 4 28 2.1875 28.1171875 C-4.02698092 27.42915568 -9.30986305 25.55402807 -15 23 C-13.32757847 25.99275432 -11.57344272 28.50181368 -9.25 31 C-7 34 -7 34 -7.1875 36.875 C-7.455625 37.57625 -7.72375 38.2775 -8 39 C-11.26927011 40.15386004 -12.63074121 40.17232077 -15.8125 38.6875 C-19.61553242 35.92076948 -22.17238339 32.03711166 -24.875 28.2421875 C-29.45071244 23.41413797 -36.57444122 23.30490175 -42.875 22.375 C-43.75414062 22.2409375 -44.63328125 22.106875 -45.5390625 21.96875 C-47.69199778 21.64112941 -49.84590622 21.31991492 -52 21 C-52.53160457 18.58525383 -53.05054766 16.16891893 -53.5625 13.75 C-53.78969727 12.72712891 -53.78969727 12.72712891 -54.02148438 11.68359375 C-54.77415174 8.07779197 -55.06166083 5.51399559 -54 2 C-51.01980823 2.76702799 -48.04088669 3.53851865 -45.0625 4.3125 C-44.23169922 4.52583984 -43.40089844 4.73917969 -42.54492188 4.95898438 C-38.34474314 6.0539726 -34.26314356 7.24430474 -30.18359375 8.73046875 C-26.72806765 9.89598701 -24.50190773 10.40685336 -21 9 C-18.48468445 7.45885033 -18.48468445 7.45885033 -16.0625 5.5625 C-10.97067879 1.87584013 -6.47679933 -0.71964437 0 0 Z " fill="#DFC08D" transform="translate(421,248)"/>
<path d="M0 0 C1.08571289 0.55977539 1.08571289 0.55977539 2.19335938 1.13085938 C4.07058077 2.10002949 5.94195096 3.08051365 7.8125 4.0625 C8.4725 4.3925 9.1325 4.7225 9.8125 5.0625 C9.8125 5.7225 9.8125 6.3825 9.8125 7.0625 C8.28710938 8.40356445 8.28710938 8.40356445 6.15625 9.92578125 C5.38023437 10.48330078 4.60421875 11.04082031 3.8046875 11.61523438 C2.98226562 12.19595703 2.15984375 12.77667969 1.3125 13.375 C0.52101562 13.94412109 -0.27046875 14.51324219 -1.0859375 15.09960938 C-18.93972541 27.8460432 -18.93972541 27.8460432 -26.1875 27.0625 C-28.1875 25.0625 -28.1875 25.0625 -28.25 22.5 C-26.70270702 17.49405213 -23.54925605 14.01234392 -20.1875 10.0625 C-25.65029625 13.11150256 -28.19978098 16.61586178 -31.1875 22.0625 C-35.0625 21.1875 -35.0625 21.1875 -36.1875 20.0625 C-37.10148573 15.8412051 -36.97749404 12.39709484 -34.75390625 8.640625 C-25.27133772 -2.73082539 -13.11716821 -6.94438317 0 0 Z " fill="#E0C08D" transform="translate(171.1875,416.9375)"/>
<path d="M0 0 C3.48291947 2.05573591 5.75392987 4.63089481 8 8 C8.74295102 14.14623118 8.66707053 19.81552098 5 25 C1.32297423 28.40124883 -1.28622563 29.83832317 -6.3125 30.3125 C-11.38517063 29.88261266 -14.04686239 27.68373932 -17.8125 24.4375 C-20.77469123 20.85168957 -20.39040721 16.20598109 -20.34375 11.796875 C-19.81500702 7.49482988 -18.13486656 4.91924082 -15 2 C-10.14190985 -1.53315647 -5.62683548 -1.67093862 0 0 Z " fill="#050505" transform="translate(239,127)"/>
<path d="M0 0 C6.82073222 0.15123575 13.1803812 0.81551156 19.125 4.375 C22.60855193 8.50498425 24.02534505 12.51477419 24.3125 17.875 C22.07063467 24.48260308 18.48373886 31.95106369 12.125 35.375 C9.3125 35.125 9.3125 35.125 7.125 34.375 C7.5613656 28.15679024 8.89728869 24.70072366 12.125 19.375 C11.08859375 20.03628906 10.0521875 20.69757813 8.984375 21.37890625 C7.61499153 22.23242609 6.24517716 23.08525487 4.875 23.9375 C4.19308594 24.37513672 3.51117188 24.81277344 2.80859375 25.26367188 C2.14472656 25.67294922 1.48085937 26.08222656 0.796875 26.50390625 C0.1894043 26.88619385 -0.41806641 27.26848145 -1.04394531 27.66235352 C-3.37720501 28.57045819 -4.56097456 28.23274278 -6.875 27.375 C-7.875 26.375 -7.875 26.375 -8.375 24.1875 C-7.69120974 20.3411798 -5.88845162 19.10197802 -2.8984375 16.734375 C-0.00830139 14.79273916 2.86011944 13.57434388 6.125 12.375 C6.125 11.715 6.125 11.055 6.125 10.375 C5.20976563 10.32601563 4.29453125 10.27703125 3.3515625 10.2265625 C2.16304687 10.15179688 0.97453125 10.07703125 -0.25 10 C-1.43335937 9.93039062 -2.61671875 9.86078125 -3.8359375 9.7890625 C-6.875 9.375 -6.875 9.375 -8.875 7.375 C-8.24444165 1.06941655 -6.04593021 0.07249317 0 0 Z " fill="#E0C08D" transform="translate(90.875,266.625)"/>
<path d="M0 0 C4.40802625 2.16394016 7.23139226 4.38196867 9 9 C9.66541913 14.37264334 9.69575726 18.60848549 7.25 23.5 C3.3991592 27.778712 0.52557421 29.76173828 -5.3125 30.3125 C-9.85928117 29.92717956 -11.62738817 29.07282411 -15 26 C-18.37745767 20.91346737 -19.70886877 16.12407664 -18.68359375 10.078125 C-15.75389031 1.17182654 -8.54810078 -1.0784987 0 0 Z " fill="#060606" transform="translate(316,111)"/>
<path d="M0 0 C7.68917741 0.09733136 16.64736562 3.19933982 22.625 8.0625 C25.43783773 11.03607132 25.77817078 11.73418781 26 15.875 C25.8125 19.375 25.8125 19.375 23.8125 21.375 C19.96874264 21.113853 17.95447031 18.93761146 15.25 16.375 C11.93810683 13.21886191 11.93810683 13.21886191 7.8125 11.375 C8.51375 12.07625 9.215 12.7775 9.9375 13.5 C12.89583333 16.45833333 15.85416667 19.41666667 18.8125 22.375 C18.3175 23.86 18.3175 23.86 17.8125 25.375 C4.55626909 25.59806158 -8.05026246 17.81666493 -19.1875 11.375 C-19.1875 10.715 -19.1875 10.055 -19.1875 9.375 C-17.58068359 8.52615234 -17.58068359 8.52615234 -15.94140625 7.66015625 C-14.5442202 6.91936633 -13.14708753 6.17847571 -11.75 5.4375 C-11.04294922 5.06431641 -10.33589844 4.69113281 -9.60742188 4.30664062 C-1.92492235 0.22646145 -1.92492235 0.22646145 0 0 Z " fill="#DFC08E" transform="translate(346.1875,409.625)"/>
<path d="M0 0 C2.85677139 2.09032053 3.78961859 3.0649715 4.5625 6.5 C4 9 4 9 1.875 11.1875 C-5.04147777 15.54788816 -12.03766333 15.75788296 -20 15 C-29.97095837 12.54356244 -29.97095837 12.54356244 -33 8 C-33.4375 5.5625 -33.4375 5.5625 -33 3 C-24.77323215 -5.46873161 -10.0411447 -5.06385315 0 0 Z " fill="#363A3B" transform="translate(313,158)"/>
<path d="M0 0 C0.82242187 0.144375 1.64484375 0.28875 2.4921875 0.4375 C14.30307014 2.61756956 14.30307014 2.61756956 26 1 C25.36971351 17.88733123 25.36971351 17.88733123 22 23 C17.5299447 26.48882365 13.64222467 26.16188453 8.26953125 25.6171875 C5.51938624 24.86929953 4.64073036 24.33283785 3 22 C1.20782113 17.01969341 0.65462116 12.32869844 0.375 7.0625 C0.33632813 6.37865234 0.29765625 5.69480469 0.2578125 4.99023438 C0.16477588 3.32720487 0.08136213 1.66364153 0 0 Z " fill="#F4F4F4" transform="translate(264,207)"/>
<path d="M0 0 C0.73605469 0.20882812 1.47210938 0.41765625 2.23046875 0.6328125 C4.03547976 1.14852993 5.83132723 1.6961343 7.625 2.25 C6.95077442 19.01264283 6.95077442 19.01264283 2.328125 24.90234375 C-0.53570071 27.16844437 -3.4093639 26.64954412 -6.92578125 26.546875 C-10.02953309 26.17066266 -11.98374246 25.25557084 -14.375 23.25 C-16.1395174 19.7209652 -15.44142025 15.74833727 -15.3125 11.875 C-15.31056641 11.01132813 -15.30863281 10.14765625 -15.30664062 9.2578125 C-15.14490549 4.79805223 -14.97213701 2.88854096 -11.83984375 -0.4609375 C-7.24009092 -2.17223224 -4.56373965 -1.43596871 0 0 Z " fill="#F3F4F3" transform="translate(307.375,204.75)"/>
<path d="M0 0 C10.92346707 2.39326879 21.45689486 5.25543282 32 9 C31.01 9.495 31.01 9.495 30 10 C29.16245636 11.97908504 29.16245636 11.97908504 28.5 14.3125 C27.56596057 17.38366227 26.50666395 20.16201661 25 23 C24.0821875 22.79503906 23.164375 22.59007812 22.21875 22.37890625 C15.82122192 20.97440691 9.51966333 19.65196633 3 19 C2.49521515 16.58424393 1.99602358 14.16755639 1.5 11.75 C1.35691406 11.06808594 1.21382813 10.38617188 1.06640625 9.68359375 C0.38748951 6.35366879 0 3.41667449 0 0 Z " fill="#52B2D2" transform="translate(366,250)"/>
<path d="M0 0 C1.32561852 6.38707103 1.32561852 6.38707103 -0.0625 9 C-2.91405714 10.47177143 -4.96704093 9.74138999 -8 9 C-9.32561852 2.61292897 -9.32561852 2.61292897 -7.9375 0 C-5.08594286 -1.47177143 -3.03295907 -0.74138999 0 0 Z " fill="#E7E7E7" transform="translate(315,120)"/>
<path d="M0 0 C5.13882162 1.78285648 9.34862655 5.20276789 12 10 C11.66015625 12.22265625 11.66015625 12.22265625 11 14 C10.34 14 9.68 14 9 14 C8.443125 12.906875 7.88625 11.81375 7.3125 10.6875 C5.32076828 7.2642111 3.77517298 5.51006919 0 4 C-2.99328336 3.49104104 -5.9708509 3.19138415 -9 3 C-9 2.34 -9 1.68 -9 1 C-5.92805092 -0.53597454 -3.39755707 -0.2265038 0 0 Z " fill="#050C0D" transform="translate(132,102)"/>
<path d="M0 0 C3.625 0.375 3.625 0.375 7 1 C7.36075949 6.41139241 7.36075949 6.41139241 5.8125 8.9375 C4 10 4 10 1.375 9.75 C-1 9 -1 9 -2 8 C-2.1875 5.0625 -2.1875 5.0625 -2 2 C-1.34 1.34 -0.68 0.68 0 0 Z " fill="#EEEEEE" transform="translate(231,135)"/>
<path d="M0 0 C0.97001953 0.05220703 1.94003906 0.10441406 2.93945312 0.15820312 C5.31420788 0.28688442 7.68843229 0.42179796 10.0625 0.5625 C10.0625 0.8925 10.0625 1.2225 10.0625 1.5625 C6.52134475 1.76062858 2.97957384 1.94409963 -0.5625 2.125 C-1.56152344 2.18107422 -2.56054688 2.23714844 -3.58984375 2.29492188 C-8.53137286 2.54036206 -13.07340113 2.68306885 -17.9375 1.5625 C-17.9375 1.2325 -17.9375 0.9025 -17.9375 0.5625 C-11.86770983 -0.57400717 -6.14688855 -0.36553609 0 0 Z " fill="#61CCE3" transform="translate(232.9375,195.4375)"/>
<path d="M0 0 C3.088507 2.7796563 4.87675071 4.97502336 6 9 C6.07646165 11.3320802 6.09143299 13.66845878 6 16 C4.35 16.33 2.7 16.66 1 17 C1.33 16.34 1.66 15.68 2 15 C2.66 15 3.32 15 4 15 C2.64774477 7.31363974 2.64774477 7.31363974 0 0 Z " fill="#CE7253" transform="translate(250,240)"/>
<path d="M0 0 C0.66 0.33 1.32 0.66 2 1 C1.29273802 2.48976459 0.55826094 3.96662996 -0.1875 5.4375 C-0.59355469 6.26121094 -0.99960937 7.08492187 -1.41796875 7.93359375 C-3 10 -3 10 -5.67578125 10.78515625 C-6.44277344 10.85605469 -7.20976562 10.92695312 -8 11 C-6.63629701 8.00779732 -5.05091917 5.70973471 -2.875 3.25 C-2.33617187 2.63640625 -1.79734375 2.0228125 -1.2421875 1.390625 C-0.62730469 0.70226563 -0.62730469 0.70226563 0 0 Z " fill="#5ABACC" transform="translate(295,36)"/>
<path d="M0 0 C0.66 0 1.32 0 2 0 C1.01 2.97 0.02 5.94 -1 9 C-2.98 9.33 -4.96 9.66 -7 10 C-6.57847656 9.44570313 -6.15695312 8.89140625 -5.72265625 8.3203125 C-5.17480469 7.59585938 -4.62695312 6.87140625 -4.0625 6.125 C-3.51722656 5.40570313 -2.97195313 4.68640625 -2.41015625 3.9453125 C-0.96035376 2.05642921 -0.96035376 2.05642921 0 0 Z " fill="#50AEBD" transform="translate(264,42)"/>
<path d="M0 0 C0 0.66 0 1.32 0 2 C0.66 2.33 1.32 2.66 2 3 C-1.96 2.67 -5.92 2.34 -10 2 C-10 1.67 -10 1.34 -10 1 C-3.375 0 -3.375 0 0 0 Z " fill="#5DC3D6" transform="translate(225,195)"/>
<path d="M0 0 C0.99 0.495 0.99 0.495 2 1 C1.01 1.495 1.01 1.495 0 2 C0 1.34 0 0.68 0 0 Z " fill="#818273" transform="translate(136,416)"/>
<path d="M0 0 C0.99 0.495 0.99 0.495 2 1 C1.01 1.495 1.01 1.495 0 2 C0 1.34 0 0.68 0 0 Z " fill="#587F89" transform="translate(184,72)"/>
<path d="" fill="#888B7C" transform="translate(0,0)"/>
<path d="M0 0 C2 1 2 1 2 1 Z " fill="#788681" transform="translate(148,406)"/>
<path d="" fill="#6A898D" transform="translate(0,0)"/>
<path d="" fill="#858171" transform="translate(0,0)"/>
<path d="M0 0 C2 1 2 1 2 1 Z " fill="#6A9097" transform="translate(374,275)"/>
<path d="" fill="#808883" transform="translate(0,0)"/>
<path d="" fill="#799B9F" transform="translate(0,0)"/>
<path d="" fill="#7098A0" transform="translate(0,0)"/>
<path d="" fill="#688F97" transform="translate(0,0)"/>
<path d="M0 0 C2 1 2 1 2 1 Z " fill="#64777A" transform="translate(321,72)"/>
<path d="M0 0 C2 1 2 1 2 1 Z " fill="#5C7F86" transform="translate(301,64)"/>
<path d="M0 0 C2 1 2 1 2 1 Z " fill="#58818C" transform="translate(204,64)"/>
<path d="M0 0 C2 1 2 1 2 1 Z " fill="#445A60" transform="translate(260,36)"/>
<path d="" fill="#7B796B" transform="translate(0,0)"/>
<path d="" fill="#6E6F63" transform="translate(0,0)"/>
<path d="" fill="#78786A" transform="translate(0,0)"/>
<path d="" fill="#787464" transform="translate(0,0)"/>
<path d="" fill="#59848D" transform="translate(0,0)"/>
<path d="" fill="#7F8173" transform="translate(0,0)"/>
<path d="" fill="#707B75" transform="translate(0,0)"/>
<path d="" fill="#868679" transform="translate(0,0)"/>
<path d="" fill="#718785" transform="translate(0,0)"/>
<path d="" fill="#709399" transform="translate(0,0)"/>
<path d="" fill="#71969C" transform="translate(0,0)"/>
<path d="" fill="#8A8A7C" transform="translate(0,0)"/>
<path d="" fill="#8F8E7E" transform="translate(0,0)"/>
<path d="" fill="#749294" transform="translate(0,0)"/>
<path d="" fill="#797767" transform="translate(0,0)"/>
<path d="" fill="#868270" transform="translate(0,0)"/>
<path d="" fill="#81877A" transform="translate(0,0)"/>
<path d="" fill="#678285" transform="translate(0,0)"/>
<path d="" fill="#778684" transform="translate(0,0)"/>
<path d="" fill="#8E9389" transform="translate(0,0)"/>
<path d="" fill="#8D8C7E" transform="translate(0,0)"/>
<path d="" fill="#6C98A1" transform="translate(0,0)"/>
<path d="" fill="#699298" transform="translate(0,0)"/>
<path d="" fill="#74959C" transform="translate(0,0)"/>
<path d="" fill="#7C9497" transform="translate(0,0)"/>
<path d="" fill="#888E8A" transform="translate(0,0)"/>
<path d="" fill="#506F7C" transform="translate(0,0)"/>
<path d="" fill="#5D8690" transform="translate(0,0)"/>
<path d="" fill="#567F8A" transform="translate(0,0)"/>
<path d="" fill="#5B7E89" transform="translate(0,0)"/>
<path d="" fill="#546F75" transform="translate(0,0)"/>
<path d="" fill="#5D858D" transform="translate(0,0)"/>
<path d="" fill="#767E7C" transform="translate(0,0)"/>
<path d="" fill="#56828D" transform="translate(0,0)"/>
<path d="" fill="#59838D" transform="translate(0,0)"/>
<path d="" fill="#5B838A" transform="translate(0,0)"/>
<path d="" fill="#426067" transform="translate(0,0)"/>
<path d="" fill="#5A838C" transform="translate(0,0)"/>
<path d="" fill="#87B6C1" transform="translate(0,0)"/>
<path d="" fill="#56777B" transform="translate(0,0)"/>
<path d="" fill="#4C696F" transform="translate(0,0)"/>
<path d="" fill="#3B4F53" transform="translate(0,0)"/>
</svg>
